<?xml version="1.0" encoding="utf-8"?>
<!-- Generator: Adobe Illustrator 18.1.1, SVG Export Plug-In . SVG Version: 6.00 Build 0)  -->
<!DOCTYPE svg PUBLIC "-//W3C//DTD SVG 1.1//EN" "http://www.w3.org/Graphics/SVG/1.1/DTD/svg11.dtd">
<svg version="1.1" id="Layer_1" xmlns="http://www.w3.org/2000/svg" xmlns:xlink="http://www.w3.org/1999/xlink" x="0px" y="0px"
   viewBox="0 0 391 62.6" enable-background="new 0 0 391 62.6" xml:space="preserve">
<g>
  <path fill="#FFFFFF" d="M73.1,36.8h12.4l-6.2-17.1L73.1,36.8z M87.6,0.9l23.1,60.6H94.6l-4.3-11.7h-22L64,61.6H48.3L71.4,0.9H87.6z
    "/>
  <rect x="112.3" y="0.9" fill="#FFFFFF" width="15.9" height="60.6"/>
  <polygon fill="#FFFFFF" points="135,0.9 150.9,0.9 150.9,47.8 176.1,47.8 173.7,61.6 135,61.6   "/>
  <polygon fill="#FFFFFF" points="258.4,0.9 258.4,23.9 235,23.9 235,0.9 224.4,0.9 219.1,0.9 170.9,0.9 168.6,14.6 187.2,14.6 
    178.9,61.6 194.8,61.6 203.1,14.6 219.1,14.6 219.1,61.6 235,61.6 235,37.6 258.4,37.6 258.4,61.6 274.3,61.6 274.3,0.9   "/>
  <g>
    <path fill="#FFFFFF" d="M16.6,43.6c1.3,4.1,4.8,6.2,9.8,6.2c4.8,0,8.2-2.1,8.2-5.8c0-2.9-1.9-4.1-5.7-5l-11.6-2.5
      c-8.9-2-15.6-6.6-15.6-16.9c0-11.8,9.9-19.6,23.3-19.6c14.8,0,23.2,8.1,24.9,18.6H34.3c-1.3-3.4-4-5.9-9.3-5.9
      c-4.5,0-7.6,2-7.6,5.3c0,2.7,1.9,4.1,5,4.8l11.8,2.8C44.7,28,50.4,33.6,50.4,43c0,12.4-10.5,19.5-23.7,19.5
      c-14.5,0-24.4-7-26.6-19H16.6z"/>
  </g>
  <g>
    <path fill="#FFFFFF" d="M297.8,28.9h9.9c5.6,0,8.2-2.9,8.2-7.3c0-4.4-2.6-7.3-8.2-7.3h-9.9V28.9z M297.8,41.5v20h-15.7V0.9h27.2
      c13,0,22,7.4,22,20.6c0,9.2-4.6,15.5-12.1,18.3l14.2,21.7h-17.6l-12.6-20H297.8z"/>
    <path fill="#FFFFFF" d="M337.9,36.8V0.9h15.8v34.5c0,8.6,4,13,10.7,13c6.5,0,10.6-4.4,10.6-13V0.9h15.8v35.9
      c0,16.6-10.4,25.7-26.4,25.7C348.4,62.6,337.9,53.5,337.9,36.8"/>
  </g>
</g>
</svg>